<?xml version="1.0" encoding="UTF-8" standalone="no"?>
<!-- Created with Inkscape (http://www.inkscape.org/) -->

<svg
   xmlns:dc="http://purl.org/dc/elements/1.1/"
   xmlns:cc="http://creativecommons.org/ns#"
   xmlns:rdf="http://www.w3.org/1999/02/22-rdf-syntax-ns#"
   xmlns:svg="http://www.w3.org/2000/svg"
   xmlns="http://www.w3.org/2000/svg"
   xmlns:sodipodi="http://sodipodi.sourceforge.net/DTD/sodipodi-0.dtd"
   xmlns:inkscape="http://www.inkscape.org/namespaces/inkscape"
   width="1097.22"
   height="548.60999"
   id="svg4354"
   version="1.1"
   inkscape:version="0.48.4 r9939"
   sodipodi:docname="blink-logo-final.svg">
  <defs
     id="defs4356">
    <clipPath
       id="clipPath4285"
       clipPathUnits="userSpaceOnUse">
      <path
         inkscape:connector-curvature="0"
         id="path4287"
         d="m 0,595.28 841.89,0 L 841.89,0 0,0 0,595.28 z" />
    </clipPath>
  </defs>
  <sodipodi:namedview
     id="base"
     pagecolor="#ffffff"
     bordercolor="#666666"
     borderopacity="1.0"
     inkscape:pageopacity="0.0"
     inkscape:pageshadow="2"
     inkscape:zoom="0.175"
     inkscape:cx="387.08464"
     inkscape:cy="17.951278"
     inkscape:document-units="px"
     inkscape:current-layer="layer1"
     showgrid="false"
     inkscape:window-width="1366"
     inkscape:window-height="706"
     inkscape:window-x="-8"
     inkscape:window-y="-8"
     inkscape:window-maximized="1"
     fit-margin-top="0"
     fit-margin-left="0"
     fit-margin-right="0"
     fit-margin-bottom="0" />
  <metadata
     id="metadata4359">
    <rdf:RDF>
      <cc:Work
         rdf:about="">
        <dc:format>image/svg+xml</dc:format>
        <dc:type
           rdf:resource="http://purl.org/dc/dcmitype/StillImage" />
        <dc:title></dc:title>
      </cc:Work>
    </rdf:RDF>
  </metadata>
  <g
     inkscape:label="Layer 1"
     inkscape:groupmode="layer"
     id="layer1"
     transform="translate(-31.903392,-158.14004)">
    <g
       transform="matrix(1.5992195,0,0,-1.5992195,-272.91744,915.08584)"
       inkscape:label="blink logo final"
       id="g4279">
      <g
         id="g4281">
        <g
           clip-path="url(#clipPath4285)"
           id="g4283">
          <g
             transform="translate(270.877,215.2666)"
             id="g4289">
            <path
               id="path4291"
               style="fill:#0074bc;fill-opacity:1;fill-rule:nonzero;stroke:none"
               d="m 0,0 c -8.57,0 -12.854,2.008 -12.854,6.033 0,1.923 2.316,2.886 6.952,2.886 4.631,0 9.574,-2.189 14.82,-6.558 C 6.119,0.787 3.147,0 0,0 m 45.906,43.021 c 0,7.869 -3.238,14.993 -9.706,21.379 -6.471,6.382 -14.079,10.841 -22.822,13.378 -8.747,2.534 -16.485,3.804 -23.216,3.804 -6.734,0 -12.374,-0.262 -16.92,-0.787 0,9.792 -1.31,14.69 -3.933,14.69 -6.473,0 -11.195,-5.947 -14.166,-17.838 -23.61,-5.771 -35.414,-16.264 -35.414,-31.479 0,-1.75 0.525,-3.455 1.574,-5.115 1.049,-1.664 3.103,-2.492 6.164,-2.492 3.058,0 5.51,1.135 7.345,3.41 1.836,2.271 3.104,6.296 3.804,12.067 0.696,6.993 5.681,12.067 14.952,15.215 -0.701,-5.074 -1.048,-13.03 -1.048,-23.872 0,-10.845 -0.485,-25.096 -1.444,-42.758 -0.963,-17.666 -1.442,-27.72 -1.442,-30.167 0,-9.968 1.05,-16.002 3.147,-18.101 2.1,-2.098 6.906,-3.147 14.428,-3.147 1.923,0 2.886,6.644 2.886,19.936 0,34.451 0.524,60.072 1.574,76.861 0.696,11.189 1.136,19.322 1.311,24.396 1.221,0.172 3.058,0.262 5.509,0.262 11.714,0 22.691,-3.455 32.921,-10.362 10.231,-6.91 15.346,-16.223 15.346,-27.937 0,-9.444 -3.5,-17.928 -10.492,-25.445 -7.346,3.672 -14.125,5.508 -20.33,5.508 -6.209,0 -10.977,-1.008 -14.297,-3.016 -3.325,-2.013 -4.985,-4.243 -4.985,-6.689 0,-8.395 6.731,-12.592 20.2,-12.592 5.771,0 11.628,1.484 17.576,4.459 5.418,-7.344 8.132,-15.345 8.132,-24.002 0,-8.657 -3.632,-16.309 -10.887,-22.953 -7.259,-6.648 -15.609,-9.968 -25.052,-9.968 -4.025,0 -9.882,1.221 -17.576,3.672 -7.697,2.447 -12.682,3.673 -14.951,3.673 -7.174,0 -10.756,-1.837 -10.756,-5.509 0,-2.275 0.656,-4.156 1.968,-5.64 1.311,-1.488 2.578,-2.406 3.803,-2.755 6.12,-1.922 16.264,-2.885 30.43,-2.885 20.809,0 37.422,6.382 49.841,19.15 6.643,6.992 9.968,15.825 9.968,26.494 0,10.665 -4.898,19.846 -14.69,27.544 14.165,11.715 21.248,24.921 21.248,39.611"
               inkscape:connector-curvature="0" />
          </g>
          <g
             transform="translate(383.9336,259.8613)"
             id="g4293">
            <path
               id="path4295"
               style="fill:#0074bc;fill-opacity:1;fill-rule:nonzero;stroke:none"
               d="m 0,0 c 5.07,0 9.006,1.967 11.805,5.902 2.795,3.935 4.197,8.612 4.197,14.035 0,5.418 -2.361,8.131 -7.083,8.131 C 6.296,28.068 3.32,26.929 0,24.658 -3.324,22.383 -4.984,19.674 -4.984,16.526 -4.984,5.509 -3.324,0 0,0"
               inkscape:connector-curvature="0" />
          </g>
          <g
             transform="translate(355.8682,296.5864)"
             id="g4297">
            <path
               id="path4299"
               style="fill:#0074bc;fill-opacity:1;fill-rule:nonzero;stroke:none"
               d="m 0,0 c 1.397,0 2.099,-2.8 2.099,-8.395 0,-13.993 -4.55,-32.966 -13.641,-56.923 C -9.095,-21.773 -5.246,0 0,0 m 248.147,-156.869 -7.083,-0.787 c -2.451,0 -4.721,1.05 -6.82,3.148 -7.698,7.87 -17.051,21.51 -28.068,40.922 -0.525,0.873 -0.787,1.746 -0.787,2.624 0,0.873 0.787,1.659 2.36,2.36 7.693,3.845 13.814,8.874 18.363,15.084 4.545,6.205 6.821,13.157 6.821,20.854 0,11.543 -5.948,17.314 -17.838,17.314 -6.996,0 -13.949,-4.984 -20.856,-14.953 -6.91,-9.968 -11.935,-20.551 -15.083,-31.74 0.697,17.837 2.448,37.512 5.247,59.022 2.795,21.51 4.239,35.545 4.328,42.103 0.086,6.558 -1.18,9.837 -3.803,9.837 -2.624,0 -6.079,-1.927 -10.363,-5.771 -4.287,-3.849 -6.689,-6.558 -7.212,-8.132 -3.501,-18.888 -5.6,-46.169 -6.297,-81.845 -0.061,-2.241 -0.198,-4.993 -0.405,-8.231 -0.336,-0.729 -0.679,-1.479 -1.035,-2.262 -5.16,-11.37 -10.361,-20.682 -15.607,-27.937 -5.246,-7.259 -9.358,-10.977 -12.33,-11.149 -1.049,0 -1.574,1.968 -1.574,5.903 0,3.934 0.828,13.378 2.493,28.33 1.659,14.953 2.491,26.274 2.491,33.971 0,3.673 -1.443,6.73 -4.328,9.182 -2.885,2.446 -6.164,3.672 -9.836,3.672 -3.674,0 -7.83,-2.537 -12.461,-7.608 -4.636,-5.074 -10.276,-13.03 -16.92,-23.871 -6.648,-10.845 -10.32,-16.789 -11.018,-17.838 0,3.845 0.435,10.755 1.312,20.724 3.497,8.218 5.247,16.961 5.247,26.232 0,1.922 -0.263,3.234 -0.787,3.935 -0.526,0.696 -1.795,1.049 -3.805,1.049 -2.012,0 -5.246,-1.664 -9.705,-4.984 -4.459,-3.324 -7.566,-5.861 -9.312,-7.607 -1.75,-1.75 -2.623,-6.821 -2.623,-15.215 l 0,-15.477 c 0,-1.207 -0.021,-2.541 -0.061,-3.989 -4.752,-10.153 -9.539,-18.588 -14.363,-25.26 -5.247,-7.259 -9.358,-10.977 -12.33,-11.149 -1.049,0 -1.575,2.361 -1.575,7.083 0,24.482 1.136,39.611 3.411,45.382 1.222,2.271 2.316,5.943 3.279,11.017 0.959,5.071 1.443,8.481 1.443,10.231 0,6.644 -1.271,9.968 -3.803,9.968 -2.538,0 -6.08,-1.926 -10.625,-5.771 -4.549,-3.849 -7.259,-6.472 -8.132,-7.87 -0.877,-1.402 -1.881,-10.886 -3.016,-28.462 -0.227,-3.485 -0.43,-6.765 -0.609,-9.856 -4.012,-8.086 -8.047,-14.955 -12.112,-20.573 -5.246,-7.259 -9.357,-10.977 -12.328,-11.149 -1.927,0 -2.886,5.378 -2.886,16.133 0,10.755 0.263,23.388 0.787,37.906 13.813,28.154 20.724,53.599 20.724,76.335 0,3.148 -0.701,6.428 -2.099,9.838 -1.402,3.41 -3.672,5.115 -6.821,5.115 -13.468,0 -22.035,-13.903 -25.707,-41.71 -4.373,-33.753 -6.558,-60.465 -6.558,-80.139 0,-19.674 0.873,-30.561 2.623,-32.659 0.697,-0.877 2.665,-1.795 5.902,-2.754 3.234,-0.96 6.775,-1.443 10.625,-1.443 7.592,0 16.598,9.504 27.016,28.494 -0.174,-4.497 -0.262,-8.232 -0.262,-11.181 0,-7.521 0.61,-11.895 1.836,-13.116 3.496,-2.8 8.656,-4.197 15.476,-4.197 8.102,0 17.814,10.823 29.133,32.447 -0.125,-1.697 -0.261,-3.457 -0.412,-5.297 -0.959,-11.804 -1.442,-18.715 -1.442,-20.723 0,-2.013 1.923,-3.587 5.77,-4.722 3.846,-1.135 7.87,-1.705 12.068,-1.705 2.796,0 4.197,2.447 4.197,7.345 l -0.263,8.132 c 0,5.418 0.526,11.189 1.574,17.313 0.525,3.32 5.071,10.973 13.641,22.954 8.567,11.976 13.858,17.968 15.871,17.968 2.008,0 3.016,-2.885 3.016,-8.656 0,-5.771 -0.483,-14.473 -1.443,-26.102 -0.962,-11.632 -1.442,-20.026 -1.442,-25.182 0,-5.161 0.61,-8.354 1.836,-9.575 3.496,-2.8 8.656,-4.197 15.477,-4.197 8.512,0 18.799,11.94 30.865,35.81 -0.139,-1.528 -0.284,-3.097 -0.439,-4.725 -1.401,-14.78 -2.098,-23.084 -2.098,-24.921 0,-1.836 1.836,-3.324 5.508,-4.459 3.673,-1.135 7.517,-1.705 11.542,-1.705 2.795,0 4.198,2.447 4.198,7.345 0,9.968 1.004,19.28 3.016,27.937 2.009,8.657 5.903,17.924 11.673,27.806 5.772,9.878 10.756,14.822 14.953,14.822 2.972,0 5.377,-0.918 7.214,-2.755 1.836,-1.836 2.755,-4.066 2.755,-6.689 0,-9.271 -5.947,-16.965 -17.838,-23.084 -7.346,-3.501 -11.017,-6.558 -11.017,-9.182 0,-1.926 1.134,-4.722 3.41,-8.394 9.443,-16.965 16.829,-28.593 22.166,-34.889 5.332,-6.296 11.935,-9.444 19.804,-9.444 4.198,0 7.957,0.615 11.281,1.837 3.319,1.225 4.983,3.061 4.983,5.509 0,1.401 -0.7,2.098 -2.098,2.098"
               inkscape:connector-curvature="0" />
          </g>
          <g
             transform="translate(454.8193,399.0654)"
             id="g4301">
            <path
               id="path4303"
               style="fill:#faaf40;fill-opacity:1;fill-rule:nonzero;stroke:none"
               d="M 0,0 -0.461,0.576 C -0.58,-0.866 -0.739,-2.296 -0.947,-3.71 L 5.297,-59.481 20.89,-32.414 C 10.198,-24.869 2.516,-13.351 0,0"
               inkscape:connector-curvature="0" />
          </g>
          <g
             transform="translate(460.6631,370.7324)"
             id="g4305">
            <path
               id="path4307"
               style="fill:#f7941e;fill-opacity:1;fill-rule:nonzero;stroke:none"
               d="m 0,0 c -0.573,6.948 -5.078,24.266 -5.845,28.338 -0.159,0.318 -0.339,1.975 -0.437,0.829 C -7.441,14.43 -13.289,1.019 -22.342,-9.582 L -0.547,-31.148 C 0.838,-22.369 1.172,-14.202 0,0"
               inkscape:connector-curvature="0" />
          </g>
          <g
             transform="translate(384.1455,468.4038)"
             id="g4309">
            <path
               id="path4311"
               style="fill:#ffffff;fill-opacity:1;fill-rule:nonzero;stroke:none"
               d="m 0,0 c -33.041,0 -59.825,-26.785 -59.825,-59.826 0,-33.041 26.784,-59.826 59.825,-59.826 33.042,0 59.825,26.785 59.825,59.826 C 59.825,-26.785 33.042,0 0,0"
               inkscape:connector-curvature="0" />
          </g>
          <g
             transform="translate(503.415,456.2754)"
             id="g4313">
            <path
               id="path4315"
               style="fill:#ffffff;fill-opacity:1;fill-rule:nonzero;stroke:none"
               d="m 0,0 c -24.945,0 -45.167,-20.222 -45.167,-45.167 0,-24.945 20.222,-45.168 45.167,-45.168 24.946,0 45.167,20.223 45.167,45.168 C 45.167,-20.222 24.946,0 0,0"
               inkscape:connector-curvature="0" />
          </g>
          <g
             transform="translate(503.415,365.9404)"
             id="g4317">
            <path
               id="path4319"
               style="fill:#8bc53f;fill-opacity:1;fill-rule:nonzero;stroke:none"
               d="m 0,0 c -24.945,0 -45.167,20.223 -45.167,45.168 0,24.945 20.222,45.167 45.167,45.167 24.946,0 45.167,-20.222 45.167,-45.167 C 45.167,20.223 24.946,0 0,0 m -119.27,-17.189 c -33.041,0 -59.825,26.785 -59.825,59.826 0,33.041 26.784,59.826 59.825,59.826 33.042,0 59.826,-26.785 59.826,-59.826 0,-33.041 -26.784,-59.826 -59.826,-59.826 M 1.856,94.047 c -26.783,0 -48.765,-20.505 -51.132,-46.672 -3.969,33.787 -32.681,60.005 -67.535,60.005 -37.567,0 -68.021,-30.454 -68.021,-68.021 0,-37.567 30.454,-68.022 68.021,-68.022 36.137,0 65.677,28.184 67.875,63.767 3.668,-24.763 25.009,-43.766 50.792,-43.766 28.364,0 51.355,22.992 51.355,51.354 0,28.363 -22.991,51.355 -51.355,51.355"
               inkscape:connector-curvature="0" />
          </g>
          <g
             transform="translate(418.2715,418.0391)"
             id="g4321">
            <path
               id="path4323"
               style="fill:#8bc53f;fill-opacity:1;fill-rule:nonzero;stroke:none"
               d="m 0,0 c -2.791,-16.356 -17.025,-28.81 -34.178,-28.81 -15.97,0 -29.414,10.8 -33.443,25.493 -0.324,-1.911 -0.504,-3.871 -0.504,-5.874 0,-19.155 15.528,-34.683 34.682,-34.683 19.154,0 34.683,15.528 34.683,34.683 C 1.24,-6.008 0.803,-2.929 0,0"
               inkscape:connector-curvature="0" />
          </g>
          <g
             transform="translate(517.6904,413.5469)"
             id="g4325">
            <path
               id="path4327"
               style="fill:#8bc53f;fill-opacity:1;fill-rule:nonzero;stroke:none"
               d="m 0,0 c -6.969,0 -12.619,5.65 -12.619,12.62 0,1.88 0.423,3.657 1.159,5.26 -0.187,0.005 -0.374,0.015 -0.563,0.015 -12.01,0 -21.745,-9.736 -21.745,-21.745 0,-12.008 9.735,-21.744 21.745,-21.744 12.007,0 21.744,9.736 21.744,21.744 0,2.512 -0.431,4.922 -1.215,7.167 C 6.262,1.264 3.282,0 0,0"
               inkscape:connector-curvature="0" />
          </g>
        </g>
      </g>
    </g>
  </g>
</svg>
